<?xml version="1.0" standalone="no"?>
<!DOCTYPE svg PUBLIC "-//W3C//DTD SVG 20010904//EN"
 "http://www.w3.org/TR/2001/REC-SVG-20010904/DTD/svg10.dtd">
<svg version="1.0" xmlns="http://www.w3.org/2000/svg"
 width="5882.000000pt" height="3165.000000pt" viewBox="0 0 5882.000000 3165.000000"
 preserveAspectRatio="xMidYMid meet">

<g transform="translate(0.000000,3165.000000) scale(0.100000,-0.100000)"
fill="#000000" stroke="none">
<path d="M29130 20730 l0 -1000 275 0 275 0 0 1000 0 1000 -275 0 -275 0 0
-1000z"/>
<path d="M26855 21027 c-132 -68 -240 -128 -240 -133 0 -10 845 -1688 877
-1741 l19 -32 245 122 c147 74 243 127 242 135 -4 19 -892 1772 -898 1772 -3
0 -113 -56 -245 -123z"/>
<path d="M31258 20266 c-247 -487 -448 -888 -448 -893 0 -4 110 -63 244 -130
l245 -122 84 162 c47 89 249 489 451 889 l366 726 -152 80 c-157 82 -336 172
-340 172 -2 0 -204 -398 -450 -884z"/>
<path d="M24923 19161 c-117 -177 -149 -232 -139 -240 21 -18 1620 -1093 1633
-1098 7 -3 75 91 163 222 125 187 149 230 138 240 -13 12 -1636 1105 -1641
1105 -1 0 -70 -104 -154 -229z"/>
<path d="M32915 18844 c-445 -300 -816 -551 -824 -559 -11 -11 9 -47 134 -232
81 -120 151 -222 155 -226 6 -7 1606 1059 1647 1097 9 8 -25 66 -140 238 -84
125 -154 227 -157 227 -3 0 -369 -245 -815 -545z"/>
<path d="M44275 18484 c-496 -51 -841 -131 -1245 -291 -283 -112 -523 -238
-795 -419 -524 -347 -954 -793 -1286 -1334 -545 -889 -742 -1933 -564 -2984
24 -140 100 -439 151 -592 218 -660 576 -1231 1085 -1729 379 -371 820 -666
1306 -874 382 -163 797 -271 1248 -323 173 -20 734 -17 915 5 790 98 1474 371
2095 837 870 652 1466 1625 1649 2692 46 266 59 431 59 733 0 495 -62 889
-212 1345 -283 856 -823 1593 -1564 2133 -488 356 -1077 613 -1682 732 -280
55 -405 67 -775 70 -190 1 -363 1 -385 -1z m720 -1698 c144 -23 372 -82 500
-128 252 -91 536 -253 750 -425 136 -109 342 -323 447 -463 432 -577 607
-1296 487 -2001 -92 -540 -363 -1052 -760 -1434 -209 -201 -396 -333 -654
-460 -204 -101 -320 -144 -519 -195 -203 -51 -346 -71 -561 -77 -743 -22
-1429 259 -1951 800 -383 396 -620 876 -706 1432 -31 201 -31 540 1 744 88
571 337 1066 742 1471 413 413 943 671 1529 746 141 18 558 12 695 -10z"/>
<path d="M27087 14203 l-2315 -4278 2320 -3 c1276 -1 3360 -1 4632 0 l2313 3
-2310 4278 c-1271 2352 -2314 4277 -2318 4277 -3 0 -1048 -1925 -2322 -4277z
m3253 -922 c506 -937 920 -1706 920 -1708 0 -1 -832 -3 -1850 -3 -1318 0
-1850 3 -1850 11 0 20 1845 3418 1852 3411 4 -4 421 -774 928 -1711z"/>
<path d="M9920 14050 l0 -4130 4130 0 4130 0 0 4130 0 4130 -4130 0 -4130 0 0
-4130z m6605 0 l0 -2465 -2465 0 -2465 0 -3 2468 -2 2467 2467 -2 2468 -3 0
-2465z"/>
</g>
</svg>
