<svg xmlns="http://www.w3.org/2000/svg" width="1097" height="171" viewBox="0 0 1097 171" version="1.1"><path d="M 333.219 35.209 C 333.474 35.919, 340.559 55.513, 348.964 78.750 L 364.244 121 372.622 121 C 378.668 121, 380.995 120.652, 380.981 119.750 C 380.971 119.063, 374.077 99.600, 365.660 76.500 L 350.357 34.500 341.556 34.209 C 334.702 33.983, 332.857 34.204, 333.219 35.209" stroke="none" fill="#fccc0c" fill-rule="evenodd"/><path d="M 685 40.500 L 685 48 694 48 L 703 48 703 40.500 L 703 33 694 33 L 685 33 685 40.500 M 33 43.500 L 33 53 44 53 L 55 53 55 87 L 55 121 65.500 121 L 76 121 76 87 L 76 53 87 53 L 98 53 98 43.500 L 98 34 65.500 34 L 33 34 33 43.500 M 103.239 77.165 L 103.500 120.500 123.893 120.771 C 146.816 121.076, 153.906 119.975, 160 115.162 C 171.188 106.326, 171.154 86.195, 159.937 78.069 C 157.607 76.381, 154.990 75, 154.122 75 C 153.163 75, 154.057 73.753, 156.401 71.821 C 168.884 61.532, 165.306 40.733, 150.219 35.881 C 148.010 35.171, 137.664 34.511, 124.739 34.258 L 102.979 33.831 103.239 77.165 M 162 34.933 C 162 35.446, 167.850 54.792, 175 77.924 C 182.150 101.056, 188 120.227, 188 120.527 C 188 120.827, 192.344 120.944, 197.654 120.786 L 207.308 120.500 214.481 93.082 L 221.653 65.665 228.577 93.082 L 235.500 120.500 244.988 120.500 L 254.476 120.500 267.669 78 C 274.925 54.625, 280.893 35.148, 280.931 34.717 C 280.969 34.287, 275.986 34.062, 269.858 34.217 L 258.717 34.500 252.337 58 C 248.829 70.925, 245.681 82.175, 245.343 83 C 245.005 83.825, 241.969 73.250, 238.597 59.500 L 232.466 34.500 221.471 34.219 L 210.475 33.939 204.082 59.640 L 197.689 85.341 192.982 67.921 C 190.393 58.339, 187.264 46.788, 186.028 42.250 L 183.781 34 172.890 34 C 166.821 34, 162 34.413, 162 34.933 M 292.489 35.250 C 292.243 35.938, 285.282 55.246, 277.021 78.159 C 268.759 101.071, 262 120.084, 262 120.409 C 262 120.734, 266.859 121, 272.797 121 L 283.594 121 286.108 113.250 L 288.623 105.500 303 105.500 L 317.377 105.500 319.892 113.250 L 322.406 121 333.203 121 C 339.141 121, 344 120.705, 344 120.345 C 344 119.985, 337.419 101.648, 329.375 79.595 C 321.332 57.543, 314.313 38.263, 313.777 36.750 L 312.804 34 302.871 34 C 295.830 34, 292.807 34.364, 292.489 35.250 M 393 77.540 L 393 121.081 401.250 120.790 L 409.500 120.500 409.761 77.250 L 410.021 34 401.511 34 L 393 34 393 77.540 M 623.239 77.250 L 623.500 120.500 631.250 120.792 L 639 121.084 639 77.542 L 639 34 630.989 34 L 622.979 34 623.239 77.250 M 655 77.542 L 655 121.084 662.750 120.792 L 670.500 120.500 670.761 77.250 L 671.021 34 663.011 34 L 655 34 655 77.542 M 511.750 39.827 L 505 42.441 505 49.721 L 505 57 498.500 57 L 492 57 492 63.500 L 492 70 498.500 70 L 505 70 505.006 86.750 C 505.012 105.110, 505.747 109.357, 509.742 114.105 C 513.404 118.457, 517.804 120.052, 527.958 120.710 L 536.624 121.272 539.152 114.386 L 541.679 107.500 533.226 106.969 C 521.044 106.204, 521 106.129, 521 85.889 L 521 70 529.500 70 L 538 70 538 63.500 L 538 57 529.500 57 L 521 57 521 47 C 521 39.610, 520.674 37.028, 519.750 37.106 C 519.063 37.165, 515.462 38.389, 511.750 39.827 M 124 60.500 L 124 68.219 131.609 67.834 C 138.117 67.506, 139.491 67.112, 141.109 65.114 C 142.149 63.830, 143 61.753, 143 60.500 C 143 59.247, 142.149 57.170, 141.109 55.886 C 139.491 53.888, 138.117 53.494, 131.609 53.166 L 124 52.781 124 60.500 M 455.821 56.365 C 449.348 58.149, 444.690 62.004, 441.493 68.222 C 440 71.125, 439.095 72.375, 439.481 71 C 439.867 69.625, 440.421 65.912, 440.712 62.750 L 441.240 57 433.106 57 L 424.972 57 425.236 88.750 L 425.500 120.500 433.180 120.791 L 440.859 121.082 441.180 99.291 C 441.461 80.150, 441.723 77.172, 443.331 74.802 C 447.277 68.988, 459.742 67.300, 464.397 71.950 C 466.382 73.933, 466.528 75.357, 467 97.276 L 467.500 120.500 475.250 120.792 L 483 121.084 483 96.010 C 483 69.207, 482.571 66.383, 477.702 61.169 C 472.947 56.075, 463.999 54.111, 455.821 56.365 M 573.115 56.128 C 562.058 57.964, 553.778 64.643, 549.980 74.788 C 547.541 81.300, 547.314 94.327, 549.510 101.721 C 551.492 108.396, 558.351 116.044, 564.867 118.848 C 575.518 123.430, 591.318 122.344, 600.303 116.412 C 604.629 113.556, 610 105.742, 610 102.304 C 610 100.100, 609.670 100, 602.356 100 C 594.842 100, 594.659 100.061, 591.606 103.563 C 587.999 107.701, 582.511 109.356, 576.723 108.050 C 569.828 106.495, 566.501 102.844, 564.606 94.750 L 563.962 92 587.353 92 L 610.744 92 611.367 88.108 C 611.709 85.967, 611.553 81.917, 611.021 79.108 C 608.581 66.244, 600.706 58.526, 587.535 56.091 C 580.947 54.873, 580.667 54.874, 573.115 56.128 M 732.821 56.395 C 726.836 58.006, 721.697 61.941, 718.601 67.284 C 713.394 76.267, 712.688 92.755, 717.074 102.950 C 719.678 109.003, 726.198 115.144, 731.807 116.824 C 736.741 118.302, 745.479 118.218, 749.807 116.650 C 754.114 115.089, 759.785 109.537, 762.216 104.500 C 763.278 102.300, 763.853 101.625, 763.493 103 C 763.134 104.375, 762.502 109.100, 762.090 113.500 C 760.909 126.106, 757.499 130.561, 748.190 131.664 C 741.847 132.415, 736.622 130.169, 733.873 125.509 L 731.755 121.920 724.128 122.210 L 716.500 122.500 716.816 125.500 C 717.246 129.581, 721.372 136.417, 724.938 138.956 C 730.376 142.828, 736.007 144.248, 746 144.266 C 761.659 144.294, 770.003 139.789, 775.199 128.500 C 777.432 123.649, 777.509 122.512, 777.800 90.250 L 778.100 57 769.926 57 L 761.752 57 762.293 62.250 C 762.590 65.138, 763.118 68.625, 763.467 70 C 763.815 71.375, 762.967 70.407, 761.581 67.848 C 758.238 61.675, 752.796 57.336, 746.779 56.046 C 740.744 54.752, 738.737 54.802, 732.821 56.395 M 816 55.958 C 805.263 57.880, 796.972 64.127, 792.851 73.401 C 789.812 80.239, 789.586 94.874, 792.394 102.942 C 794.932 110.235, 801.765 117.068, 809.058 119.606 C 816.984 122.365, 830.779 122.135, 837.500 119.132 C 843.692 116.365, 848.667 111.744, 851.100 106.500 C 854.065 100.111, 853.955 100, 844.661 100 C 836.779 100, 836.260 100.135, 835.204 102.452 C 832.663 108.029, 819.723 110.424, 814.242 106.331 C 810.309 103.395, 808.016 99.875, 807.346 95.745 L 806.744 92.037 830.122 91.769 L 853.500 91.500 853.833 88 C 855.175 73.898, 847.090 60.654, 835.004 57.155 C 829.656 55.607, 821.008 55.062, 816 55.958 M 900.500 55.458 C 899.950 55.666, 897.826 56.116, 895.779 56.458 C 891.273 57.211, 886.672 60.916, 882.714 66.980 C 880.761 69.971, 879.998 70.654, 880.456 69 C 880.837 67.625, 881.397 64.362, 881.701 61.750 L 882.254 57 874.127 57 L 866 57 866 89 L 866 121 874 121 L 882 121 882 99.135 C 882 78.219, 882.094 77.150, 884.168 74.514 C 890.064 67.017, 904.182 67.346, 906.865 75.042 C 907.575 77.078, 908 86.298, 908 99.649 L 908 121 916 121 L 924 121 923.994 97.250 C 923.991 84.188, 923.537 71.872, 922.984 69.882 C 921.522 64.621, 918.002 59.927, 914 57.906 C 910.575 56.176, 902.484 54.709, 900.500 55.458 M 960.132 56.021 C 949.998 58.143, 942.839 63.776, 938.616 72.949 C 936.893 76.694, 936.522 79.449, 936.522 88.500 C 936.522 97.551, 936.893 100.306, 938.616 104.051 C 941.664 110.672, 946.372 115.546, 952.719 118.651 C 957.434 120.958, 959.636 121.391, 966.900 121.441 C 972.756 121.481, 977.157 120.922, 980.693 119.689 C 989.263 116.699, 996.252 108.383, 997.702 99.449 L 998.262 96 990.144 96 L 982.027 96 980.651 99.250 C 978.439 104.478, 975.613 106.328, 969.123 106.797 C 958.036 107.599, 952.691 101.631, 952.675 88.433 C 952.661 76.342, 958.021 70, 968.253 70 C 973.922 70, 979.138 73.322, 980.457 77.771 L 981.414 81 989.707 81 C 998.944 81, 999.190 80.755, 996.830 73.899 C 994.082 65.919, 988.099 59.923, 980.152 57.188 C 975.369 55.542, 965.241 54.952, 960.132 56.021 M 1031 56.390 C 1020.480 58.730, 1014.541 63.201, 1009.762 72.384 C 1006.825 78.024, 1006.093 93.368, 1008.384 101.249 C 1010.456 108.376, 1017.112 115.942, 1023.867 118.848 C 1034.518 123.430, 1050.318 122.344, 1059.303 116.412 C 1063.629 113.556, 1069 105.742, 1069 102.304 C 1069 100.100, 1068.670 100, 1061.356 100 C 1053.842 100, 1053.659 100.061, 1050.606 103.563 C 1046.999 107.700, 1041.524 109.353, 1035.735 108.052 C 1028.864 106.508, 1025.487 102.846, 1023.469 94.750 L 1022.783 92 1046.261 92 L 1069.738 92 1070.312 88.468 C 1071.045 83.950, 1069.612 75.108, 1067.453 70.825 C 1063.422 62.832, 1056.457 57.925, 1046.535 56.091 C 1039.461 54.783, 1038.111 54.809, 1031 56.390 M 686 89 L 686 121 694 121 L 702 121 702 89 L 702 57 694 57 L 686 57 686 89 M 298.649 73.750 C 296.613 80.213, 294.959 85.838, 294.974 86.250 C 294.988 86.662, 298.652 87, 303.117 87 C 310.367 87, 311.181 86.813, 310.744 85.250 C 308.470 77.119, 303.386 62, 302.926 62 C 302.610 62, 300.685 67.287, 298.649 73.750 M 573.020 69.752 C 569.863 71.337, 565 77.036, 565 79.148 C 565 79.617, 571.739 80, 579.975 80 L 594.950 80 593.906 77.252 C 590.833 69.170, 581.120 65.682, 573.020 69.752 M 815.316 69.943 C 811.509 71.672, 808 75.992, 808 78.950 C 808 79.635, 813.043 80, 822.500 80 C 838.569 80, 838.756 79.907, 834.715 73.898 C 830.882 68.197, 822.794 66.548, 815.316 69.943 M 1032.020 69.752 C 1028.863 71.337, 1024 77.036, 1024 79.148 C 1024 79.617, 1030.739 80, 1038.975 80 L 1053.950 80 1052.906 77.252 C 1049.833 69.170, 1040.120 65.682, 1032.020 69.752 M 741.942 69.904 C 734.427 72.313, 731.058 77.588, 731.024 87 C 730.998 93.767, 733.297 98.649, 738 101.819 C 740.922 103.788, 742.452 104.110, 747.263 103.774 C 753.912 103.308, 757.631 101.062, 760.248 95.929 C 764.113 88.350, 761.282 74.749, 755.184 71.595 C 751.393 69.635, 745.235 68.849, 741.942 69.904 M 124 93.500 L 124 102 131.750 101.996 C 140.533 101.992, 145.498 99.850, 146.563 95.603 C 148.281 88.762, 143.036 85.009, 131.750 85.004 L 124 85 124 93.500" stroke="none" fill="#ffffff" fill-rule="evenodd"/></svg> 